%TF.GenerationSoftware,KiCad,Pcbnew,8.0.9-8.0.9-0~ubuntu22.04.1*%
%TF.CreationDate,2025-08-20T20:13:53+09:00*%
%TF.ProjectId,PD-Trigger,50442d54-7269-4676-9765-722e6b696361,rev?*%
%TF.SameCoordinates,Original*%
%TF.FileFunction,Legend,Bot*%
%TF.FilePolarity,Positive*%
%FSLAX46Y46*%
G04 Gerber Fmt 4.6, Leading zero omitted, Abs format (unit mm)*
G04 Created by KiCad (PCBNEW 8.0.9-8.0.9-0~ubuntu22.04.1) date 2025-08-20 20:13:53*
%MOMM*%
%LPD*%
G01*
G04 APERTURE LIST*
G04 Aperture macros list*
%AMRoundRect*
0 Rectangle with rounded corners*
0 $1 Rounding radius*
0 $2 $3 $4 $5 $6 $7 $8 $9 X,Y pos of 4 corners*
0 Add a 4 corners polygon primitive as box body*
4,1,4,$2,$3,$4,$5,$6,$7,$8,$9,$2,$3,0*
0 Add four circle primitives for the rounded corners*
1,1,$1+$1,$2,$3*
1,1,$1+$1,$4,$5*
1,1,$1+$1,$6,$7*
1,1,$1+$1,$8,$9*
0 Add four rect primitives between the rounded corners*
20,1,$1+$1,$2,$3,$4,$5,0*
20,1,$1+$1,$4,$5,$6,$7,0*
20,1,$1+$1,$6,$7,$8,$9,0*
20,1,$1+$1,$8,$9,$2,$3,0*%
G04 Aperture macros list end*
%ADD10C,0.100000*%
%ADD11C,0.150000*%
%ADD12C,0.120000*%
%ADD13C,1.524000*%
%ADD14RoundRect,1.500000X-1.500000X1.500000X-1.500000X-1.500000X1.500000X-1.500000X1.500000X1.500000X0*%
%ADD15C,6.000000*%
%ADD16RoundRect,0.237500X0.250000X0.237500X-0.250000X0.237500X-0.250000X-0.237500X0.250000X-0.237500X0*%
G04 APERTURE END LIST*
D10*
X51682306Y-43062243D02*
X52253734Y-43062243D01*
X51968020Y-43062243D02*
X51968020Y-42062243D01*
X51968020Y-42062243D02*
X52063258Y-42205100D01*
X52063258Y-42205100D02*
X52158496Y-42300338D01*
X52158496Y-42300338D02*
X52253734Y-42347957D01*
X51063258Y-42062243D02*
X50968020Y-42062243D01*
X50968020Y-42062243D02*
X50872782Y-42109862D01*
X50872782Y-42109862D02*
X50825163Y-42157481D01*
X50825163Y-42157481D02*
X50777544Y-42252719D01*
X50777544Y-42252719D02*
X50729925Y-42443195D01*
X50729925Y-42443195D02*
X50729925Y-42681290D01*
X50729925Y-42681290D02*
X50777544Y-42871766D01*
X50777544Y-42871766D02*
X50825163Y-42967004D01*
X50825163Y-42967004D02*
X50872782Y-43014624D01*
X50872782Y-43014624D02*
X50968020Y-43062243D01*
X50968020Y-43062243D02*
X51063258Y-43062243D01*
X51063258Y-43062243D02*
X51158496Y-43014624D01*
X51158496Y-43014624D02*
X51206115Y-42967004D01*
X51206115Y-42967004D02*
X51253734Y-42871766D01*
X51253734Y-42871766D02*
X51301353Y-42681290D01*
X51301353Y-42681290D02*
X51301353Y-42443195D01*
X51301353Y-42443195D02*
X51253734Y-42252719D01*
X51253734Y-42252719D02*
X51206115Y-42157481D01*
X51206115Y-42157481D02*
X51158496Y-42109862D01*
X51158496Y-42109862D02*
X51063258Y-42062243D01*
X50301353Y-43062243D02*
X50301353Y-42062243D01*
X50206115Y-42681290D02*
X49920401Y-43062243D01*
X49920401Y-42395576D02*
X50301353Y-42776528D01*
X49539448Y-43062243D02*
X49301353Y-43062243D01*
X49301353Y-43062243D02*
X49301353Y-42871766D01*
X49301353Y-42871766D02*
X49396591Y-42824147D01*
X49396591Y-42824147D02*
X49491829Y-42728909D01*
X49491829Y-42728909D02*
X49539448Y-42586052D01*
X49539448Y-42586052D02*
X49539448Y-42347957D01*
X49539448Y-42347957D02*
X49491829Y-42205100D01*
X49491829Y-42205100D02*
X49396591Y-42109862D01*
X49396591Y-42109862D02*
X49253734Y-42062243D01*
X49253734Y-42062243D02*
X49063258Y-42062243D01*
X49063258Y-42062243D02*
X48920401Y-42109862D01*
X48920401Y-42109862D02*
X48825163Y-42205100D01*
X48825163Y-42205100D02*
X48777544Y-42347957D01*
X48777544Y-42347957D02*
X48777544Y-42586052D01*
X48777544Y-42586052D02*
X48825163Y-42728909D01*
X48825163Y-42728909D02*
X48920401Y-42824147D01*
X48920401Y-42824147D02*
X49015639Y-42871766D01*
X49015639Y-42871766D02*
X49015639Y-43062243D01*
X49015639Y-43062243D02*
X48777544Y-43062243D01*
X43968021Y-42062243D02*
X44444211Y-42062243D01*
X44444211Y-42062243D02*
X44491830Y-42538433D01*
X44491830Y-42538433D02*
X44444211Y-42490814D01*
X44444211Y-42490814D02*
X44348973Y-42443195D01*
X44348973Y-42443195D02*
X44110878Y-42443195D01*
X44110878Y-42443195D02*
X44015640Y-42490814D01*
X44015640Y-42490814D02*
X43968021Y-42538433D01*
X43968021Y-42538433D02*
X43920402Y-42633671D01*
X43920402Y-42633671D02*
X43920402Y-42871766D01*
X43920402Y-42871766D02*
X43968021Y-42967004D01*
X43968021Y-42967004D02*
X44015640Y-43014624D01*
X44015640Y-43014624D02*
X44110878Y-43062243D01*
X44110878Y-43062243D02*
X44348973Y-43062243D01*
X44348973Y-43062243D02*
X44444211Y-43014624D01*
X44444211Y-43014624D02*
X44491830Y-42967004D01*
X43634687Y-42062243D02*
X43301354Y-43062243D01*
X43301354Y-43062243D02*
X42968021Y-42062243D01*
X52253734Y-43767425D02*
X52206115Y-43719806D01*
X52206115Y-43719806D02*
X52110877Y-43672187D01*
X52110877Y-43672187D02*
X51872782Y-43672187D01*
X51872782Y-43672187D02*
X51777544Y-43719806D01*
X51777544Y-43719806D02*
X51729925Y-43767425D01*
X51729925Y-43767425D02*
X51682306Y-43862663D01*
X51682306Y-43862663D02*
X51682306Y-43957901D01*
X51682306Y-43957901D02*
X51729925Y-44100758D01*
X51729925Y-44100758D02*
X52301353Y-44672187D01*
X52301353Y-44672187D02*
X51682306Y-44672187D01*
X51063258Y-43672187D02*
X50968020Y-43672187D01*
X50968020Y-43672187D02*
X50872782Y-43719806D01*
X50872782Y-43719806D02*
X50825163Y-43767425D01*
X50825163Y-43767425D02*
X50777544Y-43862663D01*
X50777544Y-43862663D02*
X50729925Y-44053139D01*
X50729925Y-44053139D02*
X50729925Y-44291234D01*
X50729925Y-44291234D02*
X50777544Y-44481710D01*
X50777544Y-44481710D02*
X50825163Y-44576948D01*
X50825163Y-44576948D02*
X50872782Y-44624568D01*
X50872782Y-44624568D02*
X50968020Y-44672187D01*
X50968020Y-44672187D02*
X51063258Y-44672187D01*
X51063258Y-44672187D02*
X51158496Y-44624568D01*
X51158496Y-44624568D02*
X51206115Y-44576948D01*
X51206115Y-44576948D02*
X51253734Y-44481710D01*
X51253734Y-44481710D02*
X51301353Y-44291234D01*
X51301353Y-44291234D02*
X51301353Y-44053139D01*
X51301353Y-44053139D02*
X51253734Y-43862663D01*
X51253734Y-43862663D02*
X51206115Y-43767425D01*
X51206115Y-43767425D02*
X51158496Y-43719806D01*
X51158496Y-43719806D02*
X51063258Y-43672187D01*
X50301353Y-44672187D02*
X50301353Y-43672187D01*
X50206115Y-44291234D02*
X49920401Y-44672187D01*
X49920401Y-44005520D02*
X50301353Y-44386472D01*
X49539448Y-44672187D02*
X49301353Y-44672187D01*
X49301353Y-44672187D02*
X49301353Y-44481710D01*
X49301353Y-44481710D02*
X49396591Y-44434091D01*
X49396591Y-44434091D02*
X49491829Y-44338853D01*
X49491829Y-44338853D02*
X49539448Y-44195996D01*
X49539448Y-44195996D02*
X49539448Y-43957901D01*
X49539448Y-43957901D02*
X49491829Y-43815044D01*
X49491829Y-43815044D02*
X49396591Y-43719806D01*
X49396591Y-43719806D02*
X49253734Y-43672187D01*
X49253734Y-43672187D02*
X49063258Y-43672187D01*
X49063258Y-43672187D02*
X48920401Y-43719806D01*
X48920401Y-43719806D02*
X48825163Y-43815044D01*
X48825163Y-43815044D02*
X48777544Y-43957901D01*
X48777544Y-43957901D02*
X48777544Y-44195996D01*
X48777544Y-44195996D02*
X48825163Y-44338853D01*
X48825163Y-44338853D02*
X48920401Y-44434091D01*
X48920401Y-44434091D02*
X49015639Y-44481710D01*
X49015639Y-44481710D02*
X49015639Y-44672187D01*
X49015639Y-44672187D02*
X48777544Y-44672187D01*
X44396592Y-44672187D02*
X44206116Y-44672187D01*
X44206116Y-44672187D02*
X44110878Y-44624568D01*
X44110878Y-44624568D02*
X44063259Y-44576948D01*
X44063259Y-44576948D02*
X43968021Y-44434091D01*
X43968021Y-44434091D02*
X43920402Y-44243615D01*
X43920402Y-44243615D02*
X43920402Y-43862663D01*
X43920402Y-43862663D02*
X43968021Y-43767425D01*
X43968021Y-43767425D02*
X44015640Y-43719806D01*
X44015640Y-43719806D02*
X44110878Y-43672187D01*
X44110878Y-43672187D02*
X44301354Y-43672187D01*
X44301354Y-43672187D02*
X44396592Y-43719806D01*
X44396592Y-43719806D02*
X44444211Y-43767425D01*
X44444211Y-43767425D02*
X44491830Y-43862663D01*
X44491830Y-43862663D02*
X44491830Y-44100758D01*
X44491830Y-44100758D02*
X44444211Y-44195996D01*
X44444211Y-44195996D02*
X44396592Y-44243615D01*
X44396592Y-44243615D02*
X44301354Y-44291234D01*
X44301354Y-44291234D02*
X44110878Y-44291234D01*
X44110878Y-44291234D02*
X44015640Y-44243615D01*
X44015640Y-44243615D02*
X43968021Y-44195996D01*
X43968021Y-44195996D02*
X43920402Y-44100758D01*
X43634687Y-43672187D02*
X43301354Y-44672187D01*
X43301354Y-44672187D02*
X42968021Y-43672187D01*
X51777544Y-45615464D02*
X51777544Y-46282131D01*
X52015639Y-45234512D02*
X52253734Y-45948797D01*
X52253734Y-45948797D02*
X51634687Y-45948797D01*
X51348972Y-45282131D02*
X50682306Y-45282131D01*
X50682306Y-45282131D02*
X51110877Y-46282131D01*
X50301353Y-46282131D02*
X50301353Y-45282131D01*
X50206115Y-45901178D02*
X49920401Y-46282131D01*
X49920401Y-45615464D02*
X50301353Y-45996416D01*
X49539448Y-46282131D02*
X49301353Y-46282131D01*
X49301353Y-46282131D02*
X49301353Y-46091654D01*
X49301353Y-46091654D02*
X49396591Y-46044035D01*
X49396591Y-46044035D02*
X49491829Y-45948797D01*
X49491829Y-45948797D02*
X49539448Y-45805940D01*
X49539448Y-45805940D02*
X49539448Y-45567845D01*
X49539448Y-45567845D02*
X49491829Y-45424988D01*
X49491829Y-45424988D02*
X49396591Y-45329750D01*
X49396591Y-45329750D02*
X49253734Y-45282131D01*
X49253734Y-45282131D02*
X49063258Y-45282131D01*
X49063258Y-45282131D02*
X48920401Y-45329750D01*
X48920401Y-45329750D02*
X48825163Y-45424988D01*
X48825163Y-45424988D02*
X48777544Y-45567845D01*
X48777544Y-45567845D02*
X48777544Y-45805940D01*
X48777544Y-45805940D02*
X48825163Y-45948797D01*
X48825163Y-45948797D02*
X48920401Y-46044035D01*
X48920401Y-46044035D02*
X49015639Y-46091654D01*
X49015639Y-46091654D02*
X49015639Y-46282131D01*
X49015639Y-46282131D02*
X48777544Y-46282131D01*
X43920402Y-46282131D02*
X44491830Y-46282131D01*
X44206116Y-46282131D02*
X44206116Y-45282131D01*
X44206116Y-45282131D02*
X44301354Y-45424988D01*
X44301354Y-45424988D02*
X44396592Y-45520226D01*
X44396592Y-45520226D02*
X44491830Y-45567845D01*
X43539449Y-45377369D02*
X43491830Y-45329750D01*
X43491830Y-45329750D02*
X43396592Y-45282131D01*
X43396592Y-45282131D02*
X43158497Y-45282131D01*
X43158497Y-45282131D02*
X43063259Y-45329750D01*
X43063259Y-45329750D02*
X43015640Y-45377369D01*
X43015640Y-45377369D02*
X42968021Y-45472607D01*
X42968021Y-45472607D02*
X42968021Y-45567845D01*
X42968021Y-45567845D02*
X43015640Y-45710702D01*
X43015640Y-45710702D02*
X43587068Y-46282131D01*
X43587068Y-46282131D02*
X42968021Y-46282131D01*
X42682306Y-45282131D02*
X42348973Y-46282131D01*
X42348973Y-46282131D02*
X42015640Y-45282131D01*
X51682306Y-47892075D02*
X52253734Y-47892075D01*
X51968020Y-47892075D02*
X51968020Y-46892075D01*
X51968020Y-46892075D02*
X52063258Y-47034932D01*
X52063258Y-47034932D02*
X52158496Y-47130170D01*
X52158496Y-47130170D02*
X52253734Y-47177789D01*
X51063258Y-46892075D02*
X50968020Y-46892075D01*
X50968020Y-46892075D02*
X50872782Y-46939694D01*
X50872782Y-46939694D02*
X50825163Y-46987313D01*
X50825163Y-46987313D02*
X50777544Y-47082551D01*
X50777544Y-47082551D02*
X50729925Y-47273027D01*
X50729925Y-47273027D02*
X50729925Y-47511122D01*
X50729925Y-47511122D02*
X50777544Y-47701598D01*
X50777544Y-47701598D02*
X50825163Y-47796836D01*
X50825163Y-47796836D02*
X50872782Y-47844456D01*
X50872782Y-47844456D02*
X50968020Y-47892075D01*
X50968020Y-47892075D02*
X51063258Y-47892075D01*
X51063258Y-47892075D02*
X51158496Y-47844456D01*
X51158496Y-47844456D02*
X51206115Y-47796836D01*
X51206115Y-47796836D02*
X51253734Y-47701598D01*
X51253734Y-47701598D02*
X51301353Y-47511122D01*
X51301353Y-47511122D02*
X51301353Y-47273027D01*
X51301353Y-47273027D02*
X51253734Y-47082551D01*
X51253734Y-47082551D02*
X51206115Y-46987313D01*
X51206115Y-46987313D02*
X51158496Y-46939694D01*
X51158496Y-46939694D02*
X51063258Y-46892075D01*
X50110877Y-46892075D02*
X50015639Y-46892075D01*
X50015639Y-46892075D02*
X49920401Y-46939694D01*
X49920401Y-46939694D02*
X49872782Y-46987313D01*
X49872782Y-46987313D02*
X49825163Y-47082551D01*
X49825163Y-47082551D02*
X49777544Y-47273027D01*
X49777544Y-47273027D02*
X49777544Y-47511122D01*
X49777544Y-47511122D02*
X49825163Y-47701598D01*
X49825163Y-47701598D02*
X49872782Y-47796836D01*
X49872782Y-47796836D02*
X49920401Y-47844456D01*
X49920401Y-47844456D02*
X50015639Y-47892075D01*
X50015639Y-47892075D02*
X50110877Y-47892075D01*
X50110877Y-47892075D02*
X50206115Y-47844456D01*
X50206115Y-47844456D02*
X50253734Y-47796836D01*
X50253734Y-47796836D02*
X50301353Y-47701598D01*
X50301353Y-47701598D02*
X50348972Y-47511122D01*
X50348972Y-47511122D02*
X50348972Y-47273027D01*
X50348972Y-47273027D02*
X50301353Y-47082551D01*
X50301353Y-47082551D02*
X50253734Y-46987313D01*
X50253734Y-46987313D02*
X50206115Y-46939694D01*
X50206115Y-46939694D02*
X50110877Y-46892075D01*
X49348972Y-47892075D02*
X49348972Y-46892075D01*
X49253734Y-47511122D02*
X48968020Y-47892075D01*
X48968020Y-47225408D02*
X49348972Y-47606360D01*
X48587067Y-47892075D02*
X48348972Y-47892075D01*
X48348972Y-47892075D02*
X48348972Y-47701598D01*
X48348972Y-47701598D02*
X48444210Y-47653979D01*
X48444210Y-47653979D02*
X48539448Y-47558741D01*
X48539448Y-47558741D02*
X48587067Y-47415884D01*
X48587067Y-47415884D02*
X48587067Y-47177789D01*
X48587067Y-47177789D02*
X48539448Y-47034932D01*
X48539448Y-47034932D02*
X48444210Y-46939694D01*
X48444210Y-46939694D02*
X48301353Y-46892075D01*
X48301353Y-46892075D02*
X48110877Y-46892075D01*
X48110877Y-46892075D02*
X47968020Y-46939694D01*
X47968020Y-46939694D02*
X47872782Y-47034932D01*
X47872782Y-47034932D02*
X47825163Y-47177789D01*
X47825163Y-47177789D02*
X47825163Y-47415884D01*
X47825163Y-47415884D02*
X47872782Y-47558741D01*
X47872782Y-47558741D02*
X47968020Y-47653979D01*
X47968020Y-47653979D02*
X48063258Y-47701598D01*
X48063258Y-47701598D02*
X48063258Y-47892075D01*
X48063258Y-47892075D02*
X47825163Y-47892075D01*
X43920402Y-47892075D02*
X44491830Y-47892075D01*
X44206116Y-47892075D02*
X44206116Y-46892075D01*
X44206116Y-46892075D02*
X44301354Y-47034932D01*
X44301354Y-47034932D02*
X44396592Y-47130170D01*
X44396592Y-47130170D02*
X44491830Y-47177789D01*
X43015640Y-46892075D02*
X43491830Y-46892075D01*
X43491830Y-46892075D02*
X43539449Y-47368265D01*
X43539449Y-47368265D02*
X43491830Y-47320646D01*
X43491830Y-47320646D02*
X43396592Y-47273027D01*
X43396592Y-47273027D02*
X43158497Y-47273027D01*
X43158497Y-47273027D02*
X43063259Y-47320646D01*
X43063259Y-47320646D02*
X43015640Y-47368265D01*
X43015640Y-47368265D02*
X42968021Y-47463503D01*
X42968021Y-47463503D02*
X42968021Y-47701598D01*
X42968021Y-47701598D02*
X43015640Y-47796836D01*
X43015640Y-47796836D02*
X43063259Y-47844456D01*
X43063259Y-47844456D02*
X43158497Y-47892075D01*
X43158497Y-47892075D02*
X43396592Y-47892075D01*
X43396592Y-47892075D02*
X43491830Y-47844456D01*
X43491830Y-47844456D02*
X43539449Y-47796836D01*
X42682306Y-46892075D02*
X42348973Y-47892075D01*
X42348973Y-47892075D02*
X42015640Y-46892075D01*
X52253734Y-48597257D02*
X52206115Y-48549638D01*
X52206115Y-48549638D02*
X52110877Y-48502019D01*
X52110877Y-48502019D02*
X51872782Y-48502019D01*
X51872782Y-48502019D02*
X51777544Y-48549638D01*
X51777544Y-48549638D02*
X51729925Y-48597257D01*
X51729925Y-48597257D02*
X51682306Y-48692495D01*
X51682306Y-48692495D02*
X51682306Y-48787733D01*
X51682306Y-48787733D02*
X51729925Y-48930590D01*
X51729925Y-48930590D02*
X52301353Y-49502019D01*
X52301353Y-49502019D02*
X51682306Y-49502019D01*
X51063258Y-48502019D02*
X50968020Y-48502019D01*
X50968020Y-48502019D02*
X50872782Y-48549638D01*
X50872782Y-48549638D02*
X50825163Y-48597257D01*
X50825163Y-48597257D02*
X50777544Y-48692495D01*
X50777544Y-48692495D02*
X50729925Y-48882971D01*
X50729925Y-48882971D02*
X50729925Y-49121066D01*
X50729925Y-49121066D02*
X50777544Y-49311542D01*
X50777544Y-49311542D02*
X50825163Y-49406780D01*
X50825163Y-49406780D02*
X50872782Y-49454400D01*
X50872782Y-49454400D02*
X50968020Y-49502019D01*
X50968020Y-49502019D02*
X51063258Y-49502019D01*
X51063258Y-49502019D02*
X51158496Y-49454400D01*
X51158496Y-49454400D02*
X51206115Y-49406780D01*
X51206115Y-49406780D02*
X51253734Y-49311542D01*
X51253734Y-49311542D02*
X51301353Y-49121066D01*
X51301353Y-49121066D02*
X51301353Y-48882971D01*
X51301353Y-48882971D02*
X51253734Y-48692495D01*
X51253734Y-48692495D02*
X51206115Y-48597257D01*
X51206115Y-48597257D02*
X51158496Y-48549638D01*
X51158496Y-48549638D02*
X51063258Y-48502019D01*
X50110877Y-48502019D02*
X50015639Y-48502019D01*
X50015639Y-48502019D02*
X49920401Y-48549638D01*
X49920401Y-48549638D02*
X49872782Y-48597257D01*
X49872782Y-48597257D02*
X49825163Y-48692495D01*
X49825163Y-48692495D02*
X49777544Y-48882971D01*
X49777544Y-48882971D02*
X49777544Y-49121066D01*
X49777544Y-49121066D02*
X49825163Y-49311542D01*
X49825163Y-49311542D02*
X49872782Y-49406780D01*
X49872782Y-49406780D02*
X49920401Y-49454400D01*
X49920401Y-49454400D02*
X50015639Y-49502019D01*
X50015639Y-49502019D02*
X50110877Y-49502019D01*
X50110877Y-49502019D02*
X50206115Y-49454400D01*
X50206115Y-49454400D02*
X50253734Y-49406780D01*
X50253734Y-49406780D02*
X50301353Y-49311542D01*
X50301353Y-49311542D02*
X50348972Y-49121066D01*
X50348972Y-49121066D02*
X50348972Y-48882971D01*
X50348972Y-48882971D02*
X50301353Y-48692495D01*
X50301353Y-48692495D02*
X50253734Y-48597257D01*
X50253734Y-48597257D02*
X50206115Y-48549638D01*
X50206115Y-48549638D02*
X50110877Y-48502019D01*
X49348972Y-49502019D02*
X49348972Y-48502019D01*
X49253734Y-49121066D02*
X48968020Y-49502019D01*
X48968020Y-48835352D02*
X49348972Y-49216304D01*
X48587067Y-49502019D02*
X48348972Y-49502019D01*
X48348972Y-49502019D02*
X48348972Y-49311542D01*
X48348972Y-49311542D02*
X48444210Y-49263923D01*
X48444210Y-49263923D02*
X48539448Y-49168685D01*
X48539448Y-49168685D02*
X48587067Y-49025828D01*
X48587067Y-49025828D02*
X48587067Y-48787733D01*
X48587067Y-48787733D02*
X48539448Y-48644876D01*
X48539448Y-48644876D02*
X48444210Y-48549638D01*
X48444210Y-48549638D02*
X48301353Y-48502019D01*
X48301353Y-48502019D02*
X48110877Y-48502019D01*
X48110877Y-48502019D02*
X47968020Y-48549638D01*
X47968020Y-48549638D02*
X47872782Y-48644876D01*
X47872782Y-48644876D02*
X47825163Y-48787733D01*
X47825163Y-48787733D02*
X47825163Y-49025828D01*
X47825163Y-49025828D02*
X47872782Y-49168685D01*
X47872782Y-49168685D02*
X47968020Y-49263923D01*
X47968020Y-49263923D02*
X48063258Y-49311542D01*
X48063258Y-49311542D02*
X48063258Y-49502019D01*
X48063258Y-49502019D02*
X47825163Y-49502019D01*
X44491830Y-48597257D02*
X44444211Y-48549638D01*
X44444211Y-48549638D02*
X44348973Y-48502019D01*
X44348973Y-48502019D02*
X44110878Y-48502019D01*
X44110878Y-48502019D02*
X44015640Y-48549638D01*
X44015640Y-48549638D02*
X43968021Y-48597257D01*
X43968021Y-48597257D02*
X43920402Y-48692495D01*
X43920402Y-48692495D02*
X43920402Y-48787733D01*
X43920402Y-48787733D02*
X43968021Y-48930590D01*
X43968021Y-48930590D02*
X44539449Y-49502019D01*
X44539449Y-49502019D02*
X43920402Y-49502019D01*
X43301354Y-48502019D02*
X43206116Y-48502019D01*
X43206116Y-48502019D02*
X43110878Y-48549638D01*
X43110878Y-48549638D02*
X43063259Y-48597257D01*
X43063259Y-48597257D02*
X43015640Y-48692495D01*
X43015640Y-48692495D02*
X42968021Y-48882971D01*
X42968021Y-48882971D02*
X42968021Y-49121066D01*
X42968021Y-49121066D02*
X43015640Y-49311542D01*
X43015640Y-49311542D02*
X43063259Y-49406780D01*
X43063259Y-49406780D02*
X43110878Y-49454400D01*
X43110878Y-49454400D02*
X43206116Y-49502019D01*
X43206116Y-49502019D02*
X43301354Y-49502019D01*
X43301354Y-49502019D02*
X43396592Y-49454400D01*
X43396592Y-49454400D02*
X43444211Y-49406780D01*
X43444211Y-49406780D02*
X43491830Y-49311542D01*
X43491830Y-49311542D02*
X43539449Y-49121066D01*
X43539449Y-49121066D02*
X43539449Y-48882971D01*
X43539449Y-48882971D02*
X43491830Y-48692495D01*
X43491830Y-48692495D02*
X43444211Y-48597257D01*
X43444211Y-48597257D02*
X43396592Y-48549638D01*
X43396592Y-48549638D02*
X43301354Y-48502019D01*
X42682306Y-48502019D02*
X42348973Y-49502019D01*
X42348973Y-49502019D02*
X42015640Y-48502019D01*
D11*
X48377576Y-39614019D02*
X48710909Y-39137828D01*
X48949004Y-39614019D02*
X48949004Y-38614019D01*
X48949004Y-38614019D02*
X48568052Y-38614019D01*
X48568052Y-38614019D02*
X48472814Y-38661638D01*
X48472814Y-38661638D02*
X48425195Y-38709257D01*
X48425195Y-38709257D02*
X48377576Y-38804495D01*
X48377576Y-38804495D02*
X48377576Y-38947352D01*
X48377576Y-38947352D02*
X48425195Y-39042590D01*
X48425195Y-39042590D02*
X48472814Y-39090209D01*
X48472814Y-39090209D02*
X48568052Y-39137828D01*
X48568052Y-39137828D02*
X48949004Y-39137828D01*
X48187100Y-39709257D02*
X47425195Y-39709257D01*
X46758528Y-39566400D02*
X46853766Y-39614019D01*
X46853766Y-39614019D02*
X47044242Y-39614019D01*
X47044242Y-39614019D02*
X47139480Y-39566400D01*
X47139480Y-39566400D02*
X47187099Y-39518780D01*
X47187099Y-39518780D02*
X47234718Y-39423542D01*
X47234718Y-39423542D02*
X47234718Y-39137828D01*
X47234718Y-39137828D02*
X47187099Y-39042590D01*
X47187099Y-39042590D02*
X47139480Y-38994971D01*
X47139480Y-38994971D02*
X47044242Y-38947352D01*
X47044242Y-38947352D02*
X46853766Y-38947352D01*
X46853766Y-38947352D02*
X46758528Y-38994971D01*
X46187099Y-39614019D02*
X46282337Y-39566400D01*
X46282337Y-39566400D02*
X46329956Y-39518780D01*
X46329956Y-39518780D02*
X46377575Y-39423542D01*
X46377575Y-39423542D02*
X46377575Y-39137828D01*
X46377575Y-39137828D02*
X46329956Y-39042590D01*
X46329956Y-39042590D02*
X46282337Y-38994971D01*
X46282337Y-38994971D02*
X46187099Y-38947352D01*
X46187099Y-38947352D02*
X46044242Y-38947352D01*
X46044242Y-38947352D02*
X45949004Y-38994971D01*
X45949004Y-38994971D02*
X45901385Y-39042590D01*
X45901385Y-39042590D02*
X45853766Y-39137828D01*
X45853766Y-39137828D02*
X45853766Y-39423542D01*
X45853766Y-39423542D02*
X45901385Y-39518780D01*
X45901385Y-39518780D02*
X45949004Y-39566400D01*
X45949004Y-39566400D02*
X46044242Y-39614019D01*
X46044242Y-39614019D02*
X46187099Y-39614019D01*
X45425194Y-38947352D02*
X45425194Y-39614019D01*
X45425194Y-39042590D02*
X45377575Y-38994971D01*
X45377575Y-38994971D02*
X45282337Y-38947352D01*
X45282337Y-38947352D02*
X45139480Y-38947352D01*
X45139480Y-38947352D02*
X45044242Y-38994971D01*
X45044242Y-38994971D02*
X44996623Y-39090209D01*
X44996623Y-39090209D02*
X44996623Y-39614019D01*
X44663289Y-38947352D02*
X44282337Y-38947352D01*
X44520432Y-39614019D02*
X44520432Y-38756876D01*
X44520432Y-38756876D02*
X44472813Y-38661638D01*
X44472813Y-38661638D02*
X44377575Y-38614019D01*
X44377575Y-38614019D02*
X44282337Y-38614019D01*
D12*
%TO.C,R_conf*%
X46432376Y-40066700D02*
X46941824Y-40066700D01*
X46432376Y-41111700D02*
X46941824Y-41111700D01*
%TD*%
%LPC*%
D13*
%TO.C,J1*%
X53951200Y-52681200D03*
X53951200Y-50141200D03*
X53951200Y-47601200D03*
X53951200Y-45061200D03*
X53951200Y-42521200D03*
X53951200Y-39981200D03*
X53951200Y-37441200D03*
X46331200Y-52681200D03*
X43791200Y-52681200D03*
X46331200Y-37441200D03*
X43791200Y-37441200D03*
%TD*%
D14*
%TO.C,J2*%
X60198000Y-42076000D03*
D15*
X60198000Y-49276000D03*
%TD*%
D16*
%TO.C,R_conf*%
X47599600Y-40589200D03*
X45774600Y-40589200D03*
%TD*%
%LPD*%
M02*
