%TF.GenerationSoftware,KiCad,Pcbnew,8.0.9-8.0.9-0~ubuntu22.04.1*%
%TF.CreationDate,2025-08-20T20:13:53+09:00*%
%TF.ProjectId,PD-Trigger,50442d54-7269-4676-9765-722e6b696361,rev?*%
%TF.SameCoordinates,Original*%
%TF.FileFunction,Legend,Top*%
%TF.FilePolarity,Positive*%
%FSLAX46Y46*%
G04 Gerber Fmt 4.6, Leading zero omitted, Abs format (unit mm)*
G04 Created by KiCad (PCBNEW 8.0.9-8.0.9-0~ubuntu22.04.1) date 2025-08-20 20:13:53*
%MOMM*%
%LPD*%
G01*
G04 APERTURE LIST*
G04 Aperture macros list*
%AMRoundRect*
0 Rectangle with rounded corners*
0 $1 Rounding radius*
0 $2 $3 $4 $5 $6 $7 $8 $9 X,Y pos of 4 corners*
0 Add a 4 corners polygon primitive as box body*
4,1,4,$2,$3,$4,$5,$6,$7,$8,$9,$2,$3,0*
0 Add four circle primitives for the rounded corners*
1,1,$1+$1,$2,$3*
1,1,$1+$1,$4,$5*
1,1,$1+$1,$6,$7*
1,1,$1+$1,$8,$9*
0 Add four rect primitives between the rounded corners*
20,1,$1+$1,$2,$3,$4,$5,0*
20,1,$1+$1,$4,$5,$6,$7,0*
20,1,$1+$1,$6,$7,$8,$9,0*
20,1,$1+$1,$8,$9,$2,$3,0*%
G04 Aperture macros list end*
%ADD10C,0.100000*%
%ADD11C,0.150000*%
%ADD12C,0.120000*%
%ADD13C,1.524000*%
%ADD14RoundRect,1.500000X-1.500000X1.500000X-1.500000X-1.500000X1.500000X-1.500000X1.500000X1.500000X0*%
%ADD15C,6.000000*%
%ADD16RoundRect,0.237500X0.237500X-0.250000X0.237500X0.250000X-0.237500X0.250000X-0.237500X-0.250000X0*%
%ADD17RoundRect,0.237500X0.237500X-0.300000X0.237500X0.300000X-0.237500X0.300000X-0.237500X-0.300000X0*%
%ADD18RoundRect,0.162500X0.162500X-0.837500X0.162500X0.837500X-0.162500X0.837500X-0.162500X-0.837500X0*%
%ADD19RoundRect,0.249999X1.425001X-0.450001X1.425001X0.450001X-1.425001X0.450001X-1.425001X-0.450001X0*%
G04 APERTURE END LIST*
D10*
X42789819Y-46256533D02*
X43504104Y-46256533D01*
X43504104Y-46256533D02*
X43646961Y-46304152D01*
X43646961Y-46304152D02*
X43742200Y-46399390D01*
X43742200Y-46399390D02*
X43789819Y-46542247D01*
X43789819Y-46542247D02*
X43789819Y-46637485D01*
X43789819Y-45256533D02*
X43789819Y-45827961D01*
X43789819Y-45542247D02*
X42789819Y-45542247D01*
X42789819Y-45542247D02*
X42932676Y-45637485D01*
X42932676Y-45637485D02*
X43027914Y-45732723D01*
X43027914Y-45732723D02*
X43075533Y-45827961D01*
D11*
X56655619Y-46408933D02*
X57369904Y-46408933D01*
X57369904Y-46408933D02*
X57512761Y-46456552D01*
X57512761Y-46456552D02*
X57608000Y-46551790D01*
X57608000Y-46551790D02*
X57655619Y-46694647D01*
X57655619Y-46694647D02*
X57655619Y-46789885D01*
X56750857Y-45980361D02*
X56703238Y-45932742D01*
X56703238Y-45932742D02*
X56655619Y-45837504D01*
X56655619Y-45837504D02*
X56655619Y-45599409D01*
X56655619Y-45599409D02*
X56703238Y-45504171D01*
X56703238Y-45504171D02*
X56750857Y-45456552D01*
X56750857Y-45456552D02*
X56846095Y-45408933D01*
X56846095Y-45408933D02*
X56941333Y-45408933D01*
X56941333Y-45408933D02*
X57084190Y-45456552D01*
X57084190Y-45456552D02*
X57655619Y-46027980D01*
X57655619Y-46027980D02*
X57655619Y-45408933D01*
X48550533Y-39062819D02*
X48217200Y-38586628D01*
X47979105Y-39062819D02*
X47979105Y-38062819D01*
X47979105Y-38062819D02*
X48360057Y-38062819D01*
X48360057Y-38062819D02*
X48455295Y-38110438D01*
X48455295Y-38110438D02*
X48502914Y-38158057D01*
X48502914Y-38158057D02*
X48550533Y-38253295D01*
X48550533Y-38253295D02*
X48550533Y-38396152D01*
X48550533Y-38396152D02*
X48502914Y-38491390D01*
X48502914Y-38491390D02*
X48455295Y-38539009D01*
X48455295Y-38539009D02*
X48360057Y-38586628D01*
X48360057Y-38586628D02*
X47979105Y-38586628D01*
X48883867Y-38062819D02*
X49502914Y-38062819D01*
X49502914Y-38062819D02*
X49169581Y-38443771D01*
X49169581Y-38443771D02*
X49312438Y-38443771D01*
X49312438Y-38443771D02*
X49407676Y-38491390D01*
X49407676Y-38491390D02*
X49455295Y-38539009D01*
X49455295Y-38539009D02*
X49502914Y-38634247D01*
X49502914Y-38634247D02*
X49502914Y-38872342D01*
X49502914Y-38872342D02*
X49455295Y-38967580D01*
X49455295Y-38967580D02*
X49407676Y-39015200D01*
X49407676Y-39015200D02*
X49312438Y-39062819D01*
X49312438Y-39062819D02*
X49026724Y-39062819D01*
X49026724Y-39062819D02*
X48931486Y-39015200D01*
X48931486Y-39015200D02*
X48883867Y-38967580D01*
X47189580Y-43549866D02*
X47237200Y-43597485D01*
X47237200Y-43597485D02*
X47284819Y-43740342D01*
X47284819Y-43740342D02*
X47284819Y-43835580D01*
X47284819Y-43835580D02*
X47237200Y-43978437D01*
X47237200Y-43978437D02*
X47141961Y-44073675D01*
X47141961Y-44073675D02*
X47046723Y-44121294D01*
X47046723Y-44121294D02*
X46856247Y-44168913D01*
X46856247Y-44168913D02*
X46713390Y-44168913D01*
X46713390Y-44168913D02*
X46522914Y-44121294D01*
X46522914Y-44121294D02*
X46427676Y-44073675D01*
X46427676Y-44073675D02*
X46332438Y-43978437D01*
X46332438Y-43978437D02*
X46284819Y-43835580D01*
X46284819Y-43835580D02*
X46284819Y-43740342D01*
X46284819Y-43740342D02*
X46332438Y-43597485D01*
X46332438Y-43597485D02*
X46380057Y-43549866D01*
X47284819Y-42597485D02*
X47284819Y-43168913D01*
X47284819Y-42883199D02*
X46284819Y-42883199D01*
X46284819Y-42883199D02*
X46427676Y-42978437D01*
X46427676Y-42978437D02*
X46522914Y-43073675D01*
X46522914Y-43073675D02*
X46570533Y-43168913D01*
X47791919Y-41351104D02*
X48601442Y-41351104D01*
X48601442Y-41351104D02*
X48696680Y-41303485D01*
X48696680Y-41303485D02*
X48744300Y-41255866D01*
X48744300Y-41255866D02*
X48791919Y-41160628D01*
X48791919Y-41160628D02*
X48791919Y-40970152D01*
X48791919Y-40970152D02*
X48744300Y-40874914D01*
X48744300Y-40874914D02*
X48696680Y-40827295D01*
X48696680Y-40827295D02*
X48601442Y-40779676D01*
X48601442Y-40779676D02*
X47791919Y-40779676D01*
X48791919Y-39779676D02*
X48791919Y-40351104D01*
X48791919Y-40065390D02*
X47791919Y-40065390D01*
X47791919Y-40065390D02*
X47934776Y-40160628D01*
X47934776Y-40160628D02*
X48030014Y-40255866D01*
X48030014Y-40255866D02*
X48077633Y-40351104D01*
X48634819Y-49796266D02*
X48158628Y-50129599D01*
X48634819Y-50367694D02*
X47634819Y-50367694D01*
X47634819Y-50367694D02*
X47634819Y-49986742D01*
X47634819Y-49986742D02*
X47682438Y-49891504D01*
X47682438Y-49891504D02*
X47730057Y-49843885D01*
X47730057Y-49843885D02*
X47825295Y-49796266D01*
X47825295Y-49796266D02*
X47968152Y-49796266D01*
X47968152Y-49796266D02*
X48063390Y-49843885D01*
X48063390Y-49843885D02*
X48111009Y-49891504D01*
X48111009Y-49891504D02*
X48158628Y-49986742D01*
X48158628Y-49986742D02*
X48158628Y-50367694D01*
X48634819Y-48843885D02*
X48634819Y-49415313D01*
X48634819Y-49129599D02*
X47634819Y-49129599D01*
X47634819Y-49129599D02*
X47777676Y-49224837D01*
X47777676Y-49224837D02*
X47872914Y-49320075D01*
X47872914Y-49320075D02*
X47920533Y-49415313D01*
X48550533Y-37691219D02*
X48217200Y-37215028D01*
X47979105Y-37691219D02*
X47979105Y-36691219D01*
X47979105Y-36691219D02*
X48360057Y-36691219D01*
X48360057Y-36691219D02*
X48455295Y-36738838D01*
X48455295Y-36738838D02*
X48502914Y-36786457D01*
X48502914Y-36786457D02*
X48550533Y-36881695D01*
X48550533Y-36881695D02*
X48550533Y-37024552D01*
X48550533Y-37024552D02*
X48502914Y-37119790D01*
X48502914Y-37119790D02*
X48455295Y-37167409D01*
X48455295Y-37167409D02*
X48360057Y-37215028D01*
X48360057Y-37215028D02*
X47979105Y-37215028D01*
X48931486Y-36786457D02*
X48979105Y-36738838D01*
X48979105Y-36738838D02*
X49074343Y-36691219D01*
X49074343Y-36691219D02*
X49312438Y-36691219D01*
X49312438Y-36691219D02*
X49407676Y-36738838D01*
X49407676Y-36738838D02*
X49455295Y-36786457D01*
X49455295Y-36786457D02*
X49502914Y-36881695D01*
X49502914Y-36881695D02*
X49502914Y-36976933D01*
X49502914Y-36976933D02*
X49455295Y-37119790D01*
X49455295Y-37119790D02*
X48883867Y-37691219D01*
X48883867Y-37691219D02*
X49502914Y-37691219D01*
%TO.C,J1*%
D10*
X45061200Y-48871200D02*
X41251200Y-48871200D01*
X41251200Y-42521200D01*
X45061200Y-42521200D01*
X45061200Y-48871200D01*
X55221200Y-53951200D02*
X41251200Y-53951200D01*
X41251200Y-36171200D01*
X55221200Y-36171200D01*
X55221200Y-53951200D01*
D12*
%TO.C,J2*%
X56048000Y-40676000D02*
X56048000Y-53526000D01*
X56048000Y-53526000D02*
X64348000Y-53526000D01*
X58648000Y-37826000D02*
X56048000Y-40676000D01*
X61798000Y-37826000D02*
X58648000Y-37826000D01*
X64348000Y-40676000D02*
X61798000Y-37826000D01*
X64348000Y-53526000D02*
X64348000Y-40676000D01*
%TO.C,R3*%
X50023500Y-38153424D02*
X50023500Y-37643976D01*
X51068500Y-38153424D02*
X51068500Y-37643976D01*
%TO.C,C1*%
X47750000Y-43529467D02*
X47750000Y-43236933D01*
X48770000Y-43529467D02*
X48770000Y-43236933D01*
%TO.C,U1*%
X49274800Y-42456800D02*
X49274800Y-41656800D01*
X49274800Y-42456800D02*
X49274800Y-43256800D01*
X52344800Y-43416800D02*
X52344800Y-41656800D01*
X49324800Y-43756800D02*
X48994800Y-43996800D01*
X48994800Y-43516800D01*
X49324800Y-43756800D01*
G36*
X49324800Y-43756800D02*
G01*
X48994800Y-43996800D01*
X48994800Y-43516800D01*
X49324800Y-43756800D01*
G37*
%TO.C,R1*%
X49090000Y-51806664D02*
X49090000Y-47452536D01*
X52510000Y-51806664D02*
X52510000Y-47452536D01*
%TO.C,R2*%
X51496700Y-38153424D02*
X51496700Y-37643976D01*
X52541700Y-38153424D02*
X52541700Y-37643976D01*
%TD*%
%LPC*%
D13*
%TO.C,J1*%
X53951200Y-52681200D03*
X53951200Y-50141200D03*
X53951200Y-47601200D03*
X53951200Y-45061200D03*
X53951200Y-42521200D03*
X53951200Y-39981200D03*
X53951200Y-37441200D03*
X46331200Y-52681200D03*
X43791200Y-52681200D03*
X46331200Y-37441200D03*
X43791200Y-37441200D03*
%TD*%
D14*
%TO.C,J2*%
X60198000Y-42076000D03*
D15*
X60198000Y-49276000D03*
%TD*%
D16*
%TO.C,R3*%
X50546000Y-38811200D03*
X50546000Y-36986200D03*
%TD*%
D17*
%TO.C,C1*%
X48260000Y-44245700D03*
X48260000Y-42520700D03*
%TD*%
D18*
%TO.C,U1*%
X49834800Y-44246800D03*
X50784800Y-44246800D03*
X51734800Y-44246800D03*
X51734800Y-40826800D03*
X50784800Y-40826800D03*
X49834800Y-40826800D03*
%TD*%
D19*
%TO.C,R1*%
X50800000Y-52679600D03*
X50800000Y-46579600D03*
%TD*%
D16*
%TO.C,R2*%
X52019200Y-38811200D03*
X52019200Y-36986200D03*
%TD*%
%LPD*%
M02*
